<?xml version="1.0" encoding="UTF-8" standalone="no"?>
<!-- Created with Inkscape (http://www.inkscape.org/) -->

<svg
   xmlns:dc="http://purl.org/dc/elements/1.1/"
   xmlns:cc="http://creativecommons.org/ns#"
   xmlns:rdf="http://www.w3.org/1999/02/22-rdf-syntax-ns#"
   xmlns:svg="http://www.w3.org/2000/svg"
   xmlns="http://www.w3.org/2000/svg"
   xmlns:sodipodi="http://sodipodi.sourceforge.net/DTD/sodipodi-0.dtd"
   xmlns:inkscape="http://www.inkscape.org/namespaces/inkscape"
   width="744.09448819"
   height="1052.3622047"
   id="svg2"
   version="1.1"
   inkscape:version="0.48.5 r10040"
   sodipodi:docname="Nuovo documento 1">
  <defs
     id="defs4" />
  <sodipodi:namedview
     id="base"
     pagecolor="#ffffff"
     bordercolor="#666666"
     borderopacity="1.0"
     inkscape:pageopacity="0.0"
     inkscape:pageshadow="2"
     inkscape:zoom="1.4"
     inkscape:cx="252.14286"
     inkscape:cy="520"
     inkscape:document-units="px"
     inkscape:current-layer="layer1"
     showgrid="false"
     inkscape:window-width="1280"
     inkscape:window-height="962"
     inkscape:window-x="-8"
     inkscape:window-y="-8"
     inkscape:window-maximized="1" />
  <metadata
     id="metadata7">
    <rdf:RDF>
      <cc:Work
         rdf:about="">
        <dc:format>image/svg+xml</dc:format>
        <dc:type
           rdf:resource="http://purl.org/dc/dcmitype/StillImage" />
        <dc:title></dc:title>
      </cc:Work>
    </rdf:RDF>
  </metadata>
  <g
     inkscape:label="Livello 1"
     inkscape:groupmode="layer"
     id="layer1">
    <path
       sodipodi:type="arc"
       style="fill:#000000;fill-rule:evenodd;stroke:none;stroke-width:1px;stroke-linecap:butt;stroke-linejoin:miter;stroke-opacity:1;fill-opacity:1"
       id="path2996"
       sodipodi:cx="454.28571"
       sodipodi:cy="543.07648"
       sodipodi:rx="112.14286"
       sodipodi:ry="137.85715"
       d="m 566.42857,543.07648 a 112.14286,137.85715 0 1 1 -224.28572,0 112.14286,137.85715 0 1 1 224.28572,0 z"
       transform="matrix(1.0372611,0,0,1,-78.46292,-17.857143)" />
    <path
       sodipodi:type="arc"
       style="fill:#000000;fill-rule:evenodd;stroke:none;stroke-width:1px;stroke-linecap:butt;stroke-linejoin:miter;stroke-opacity:1;fill-opacity:1"
       id="path3000"
       sodipodi:cx="302.85715"
       sodipodi:cy="547.00507"
       sodipodi:rx="124.28571"
       sodipodi:ry="39.642857"
       d="m 427.14286,547.00507 a 124.28571,39.642857 0 1 1 -248.57143,0 124.28571,39.642857 0 1 1 248.57143,0 z"
       transform="matrix(1,0,0,1.1324324,-17.857143,-93.405499)" />
    <path
       style="fill:#000000;stroke:none;stroke-width:1px;stroke-linecap:butt;stroke-linejoin:miter;stroke-opacity:1;fill-opacity:1"
       d="m 138.57143,436.6479 c -1.19048,0.47619 -2.38095,0.95238 -3.57143,1.42857 -0.2381,0.23809 -0.41312,0.5637 -0.71429,0.71428 -0.21295,0.10648 -0.50132,-0.10648 -0.71428,0 -0.79757,0.39879 -0.63101,1.02979 -1.42857,1.42857 -0.57143,0.28572 -1.57143,-0.28571 -2.14286,0 -0.81887,0.40944 -0.99358,1.49037 -1.42857,2.14286 -0.18678,0.28017 -0.5637,0.41312 -0.71429,0.71429 -0.10869,0.21738 0,1.82117 0,2.14285 0,1.90477 0,3.80953 0,5.71429 0,0.71429 0.31944,1.50398 0,2.14286 -0.10648,0.21296 -0.54592,-0.16836 -0.71428,0 -0.16836,0.16836 0,0.47619 0,0.71428 0,0.47619 0,0.95238 0,1.42857 0,2.61905 0,5.2381 0,7.85715 0,1.67512 -0.16836,-0.33672 0.71428,1.42857 0.10648,0.21296 -0.16836,0.54593 0,0.71428 0.16836,0.16836 0.54593,-0.16835 0.71429,0 0.16836,0.16836 -0.19811,0.58222 0,0.71429 0.62647,0.41765 1.49723,0.32691 2.14286,0.71429 2.03298,1.21979 0.64602,1.59007 2.85714,2.14285 0.46197,0.1155 0.95238,0 1.42857,0 0.2381,0 0.71429,-0.23809 0.71429,0 0,0.2381 -0.95239,0 -0.71429,0 1.42857,0 2.85714,0 4.28571,0 0.47619,0 0.95239,0 1.42858,0 0.23809,0 0.71428,-0.23809 0.71428,0 0,0.2381 -0.88264,-0.16836 -0.71428,0 1.44517,1.44518 2.05038,0.20728 3.57142,0.71429 0.31944,0.10648 0.41312,0.5637 0.71429,0.71428 0.44894,0.22448 2.4082,-0.22447 2.85714,0 0.30117,0.15059 0.41312,0.56371 0.71429,0.71429 0.21296,0.10648 0.63899,-0.22588 0.71428,0 0.22588,0.67763 -0.14008,1.44244 0,2.14286 0.92725,4.63622 0.71429,-1.59189 0.71429,2.85714 0,0.57503 -0.14944,2.40882 0,2.85714 0.16836,0.50508 0.54593,0.9235 0.71429,1.42857 0.14222,0.42666 -0.18853,1.33431 0,1.42858 0.42591,0.21296 1.09185,-0.33672 1.42857,0 0.33671,0.33671 -0.1155,0.9666 0,1.42857 0.12912,0.5165 0.54592,0.92349 0.71428,1.42857 0.0753,0.22588 -0.10648,0.50133 0,0.71428 0.15059,0.30117 0.60781,0.39485 0.71429,0.71429 0.15456,0.4637 0,4.35116 0,5 0,0.2381 0,0.47619 0,0.71429 0,0.23809 -0.16836,0.54592 0,0.71428 0.16836,0.16836 0.60781,-0.21296 0.71428,0 0.11175,0.22349 0,3.84311 0,4.28572 0,3.09523 0,6.19047 0,9.28571 0,3.33333 0,6.66667 0,10 0,1.19048 0,2.38095 0,3.57143 0,0.47619 0.0934,0.96163 0,1.42857 -0.86487,4.32435 -0.71428,0.29595 -0.71428,3.57143 0,3.09524 0,6.19048 0,9.28571 0,1.10172 0.16704,3.45053 0,4.28572 -0.10441,0.52206 -0.54593,0.92349 -0.71429,1.42857 -0.13433,0.403 0,1.67349 0,2.14286 0,1.42857 0,2.85714 0,4.28571 0,0.71429 0.14009,1.44244 0,2.14286 -0.14766,0.7383 -0.47619,1.42857 -0.71428,2.14285 0,0.95239 0.13468,1.91434 0,2.85715 -0.10648,0.74535 -0.60781,1.3975 -0.71429,2.14285 -0.13469,0.94281 0.30117,1.95364 0,2.85715 -0.21296,0.63887 -1.05502,0.86824 -1.42857,1.42857 -0.13207,0.19811 0.0753,0.48841 0,0.71428 -0.16836,0.50508 -0.58516,0.91208 -0.71429,1.42858 -0.11549,0.46197 0.15059,0.97681 0,1.42857 -0.10647,0.31944 -0.5637,0.41311 -0.71428,0.71428 -0.10648,0.21296 0.0753,0.48841 0,0.71429 -0.16836,0.50508 -0.54593,0.92349 -0.71429,1.42857 -0.0753,0.22588 0.0578,0.4833 0,0.71429 -0.18261,0.73044 -0.53167,1.41241 -0.71428,2.14285 -0.1407,0.56279 0,2.39121 0,2.85715 0,1.90476 0,3.80952 0,5.71428 0,0.28702 -0.0725,4.17695 0,4.28572 0.29532,0.44298 1.05211,0.33782 1.42857,0.71428 0.16836,0.16836 0,0.47619 0,0.71429 0,0.23809 0,0.47619 0,0.71428 0,0.2381 0.16836,0.54593 0,0.71429 -0.88816,0.88816 -1.79595,0.71428 -2.85714,0.71428 -1.90477,0 0.23809,-0.23809 -0.71429,0.71429 -0.16836,0.16836 -0.50133,-0.10648 -0.71429,0 -0.30116,0.15059 -0.41311,0.5637 -0.71428,0.71429 -0.42592,0.21296 -0.97682,-0.15059 -1.42857,0 -0.50508,0.16836 -0.98559,0.41896 -1.42857,0.71428 -0.28017,0.18678 -0.39485,0.60781 -0.71429,0.71429 -0.45175,0.15058 -0.9666,-0.1155 -1.42857,0 -0.5165,0.12912 -0.95238,0.47619 -1.42857,0.71428 -0.95238,0.47619 -1.84699,1.09186 -2.85715,1.42857 -0.22587,0.0753 -0.4884,-0.0753 -0.71428,0 -1.55371,0.51791 -2.45199,1.73771 -3.57143,2.85715 -0.2381,0.23809 -0.47619,0.47619 -0.71429,0.71428 -0.23809,0.2381 -0.5637,0.41312 -0.71428,0.71429 -0.10648,0.21296 0.10648,0.50133 0,0.71428 -0.15059,0.30117 -0.5637,0.41312 -0.71429,0.71429 -0.10648,0.21296 0.0577,0.4833 0,0.71429 -0.18261,0.73044 -0.53167,1.41241 -0.71428,2.14285 -0.0577,0.23099 0,0.47619 0,0.71429 0,0.47619 0,0.95238 0,1.42857 0,0.47619 0,0.95238 0,1.42857 0,0.2381 -0.16836,0.54593 0,0.71429 0.16836,0.16836 0.54592,-0.16836 0.71428,0 6.8e-4,6.8e-4 -0.001,2.13962 0,2.14286 0.21296,0.63887 1.12741,0.82623 1.42857,1.42857 0.21296,0.42591 -0.33671,1.09185 0,1.42857 0.16836,0.16836 0.60781,-0.21296 0.71429,0 0.21968,0.43935 -0.22787,3.11568 0,3.57143 0.2232,0.4464 1.20537,0.98217 1.42857,1.42857 0.21296,0.42592 -0.33672,1.09185 0,1.42857 0.16836,0.16836 0.71429,-0.2381 0.71429,0 0,0.23809 -0.95238,0 -0.71429,0 4.22619,0 1.07143,-0.71429 2.14286,1.42857 0.21296,0.42592 1.09185,-0.33672 1.42857,0 0.16836,0.16836 -0.16836,0.54593 0,0.71429 0.33672,0.33671 0.97682,-0.15059 1.42857,0 0.47619,0.23809 0.95238,0.47619 1.42857,0.71428 0,0.2381 -0.16836,0.54593 0,0.71429 0.16836,0.16836 0.47619,0 0.71429,0 0.47619,0 1.03236,-0.26415 1.42857,0 0.44298,0.29532 0.2713,1.13325 0.71429,1.42857 0.39621,0.26414 0.97681,-0.15059 1.42857,0 0.63887,0.21296 0.82623,1.1274 1.42857,1.42857 0.21296,0.10648 0.47619,0 0.71428,0 1.19048,0 2.38096,0 3.57143,0 0.47619,0 1.00266,-0.21296 1.42857,0 0.21296,0.10648 -0.16835,0.54593 0,0.71429 0.16836,0.16836 0.47619,0 0.71429,0 0.2381,0 0.47619,0 0.71429,0 1.66666,0 3.33333,0 5,0 3.57142,0 7.14285,0 10.71428,0 1.19048,0 2.38095,0 3.57143,0 0.47619,0 0.9666,0.11549 1.42857,0 0.5165,-0.12913 0.9235,-0.54593 1.42857,-0.71429 2.12631,-0.70877 -1.46557,1.69134 2.14286,-0.71428 0.28017,-0.18678 0.41312,-0.56371 0.71429,-0.71429 0.21295,-0.10648 0.47619,0 0.71428,0 0.47619,0 0.9666,0.11549 1.42857,0 0.5165,-0.12913 0.91207,-0.58516 1.42857,-0.71429 0.46198,-0.11549 0.97682,0.15059 1.42858,0 0.31943,-0.10648 0.38762,-0.63262 0.71428,-0.71428 0.69296,-0.17324 1.42857,0 2.14286,0 0.47619,0 0.95238,0 1.42857,0 1.19048,0 2.39715,0.19571 3.57143,0 2.97268,-0.49545 1.23979,-0.65136 3.57143,-1.42857 0.38657,-0.12886 2.6138,0 2.85714,0 1.90476,0 3.80952,0 5.71429,0 6.19047,0 12.38095,0 18.57142,0 6.66667,0 13.33334,0 20,0 2.61905,0 5.2381,0 7.85715,0 0.95238,0 1.90476,0 2.85714,0 0.47619,0 0.95886,0.0783 1.42857,0 0.96834,-0.16139 1.88881,-0.5529 2.85714,-0.71429 0.46972,-0.0783 1.00266,0.21296 1.42858,0 0.60233,-0.30117 0.82623,-1.1274 1.42857,-1.42857 0.46732,-0.23366 2.97901,0.1481 3.57143,0 0.5165,-0.12913 0.92349,-0.54593 1.42857,-0.71429 0.22587,-0.0753 0.48841,0.0753 0.71428,0 0.50508,-0.16836 0.91207,-0.58516 1.42857,-0.71428 0.46198,-0.1155 1.00266,0.21296 1.42858,0 0.21295,-0.10648 -0.16836,-0.54593 0,-0.71429 0.16835,-0.16836 0.4884,0.0753 0.71428,0 1.29282,0.43052 1.32845,-1.1571 2.14286,-1.42857 1.69742,-0.56581 1.2973,0.84555 2.85714,-0.71428 1.47788,-1.47789 -2.2584,0.0578 0.71429,-1.42858 0.98525,-0.49262 0.63891,0.86504 1.42857,-0.71428 0.21296,-0.42592 -0.33672,-1.09186 0,-1.42857 0.16836,-0.16836 0.60781,0.21296 0.71428,0 0.31944,-0.63888 0,-1.42857 0,-2.14286 0,-0.2381 0.10648,-0.50133 0,-0.71429 -0.15058,-0.30117 -0.41311,-0.5637 -0.71428,-0.71428 -0.21296,-0.10648 -0.54593,0.16836 -0.71429,0 -0.16836,-0.16836 0.16836,-0.54593 0,-0.71429 -0.33671,-0.33672 -1.00265,0.21296 -1.42857,0 -0.54563,-0.27282 -1.65918,-1.98163 -2.14286,-2.14286 -0.45175,-0.15058 -0.97681,0.15059 -1.42857,0 -0.31944,-0.10647 -0.41311,-0.5637 -0.71428,-0.71428 -0.98526,-0.49263 -0.63891,0.86504 -1.42857,-0.71429 -0.10648,-0.21296 0,-0.47619 0,-0.71428 0,-0.47619 0.21295,-1.00266 0,-1.42857 -0.10648,-0.21296 -0.50133,0.10648 -0.71429,0 -0.60234,-0.30117 -0.82623,-1.12741 -1.42857,-1.42858 -0.21296,-0.10647 -0.50133,0.10648 -0.71429,0 -1.53283,-0.76641 -0.0329,-0.78003 -0.71428,-2.14285 -0.10648,-0.21296 -0.54593,0.16836 -0.71429,0 -0.16836,-0.16836 0.16836,-0.54593 0,-0.71429 -0.16836,-0.16836 -0.47619,0 -0.71428,0 -1.42858,0 -2.85715,0 -4.28572,0 -0.23809,0 -0.54593,0.16836 -0.71428,0 -0.37647,-0.37646 -0.2381,-1.19047 -0.71429,-1.42857 -0.63888,-0.31944 -1.45605,0.19623 -2.14286,0 -5.46292,-2.73146 -0.22357,-0.64418 -5.71428,-1.42857 -3.16538,-0.4522 -1.26732,-0.60679 -3.57143,-2.14286 -0.22537,-0.15024 -4.64922,0.0501 -5,0 -0.74536,-0.10648 -1.39575,-0.62089 -2.14286,-0.71428 -1.18128,-0.14766 -2.38095,0 -3.57143,0 -1.66666,0 -3.33333,0 -5,0 -6.42857,0 -12.85714,0 -19.28571,0 -2.38095,0 -4.76191,0 -7.14286,0 -0.47619,0 -0.95238,0 -1.42857,0 -0.2381,0 -0.54593,0.16836 -0.71429,0 -0.16835,-0.16836 0.21296,-0.60781 0,-0.71429 -0.26796,-0.13398 -3.86044,0 -4.28571,0 -0.2381,0 -0.47619,0 -0.71429,0 -0.23809,0 -0.54592,0.16836 -0.71428,0 -0.16836,-0.16836 0,-0.47619 0,-0.71429 0,-1.42857 0,-2.85714 0,-4.28571 0,-1.19048 0,-2.38095 0,-3.57143 0,-0.47619 0,-0.95238 0,-1.42857 0,-0.23809 -0.10648,-0.50133 0,-0.71429 0.15058,-0.30116 0.52751,-0.43411 0.71428,-0.71428 0.29533,-0.44298 0.41897,-0.98559 0.71429,-1.42857 0.18678,-0.28017 0.5637,-0.41312 0.71429,-0.71429 0.10648,-0.21296 0,-0.47619 0,-0.71428 0.23809,-0.47619 0.41896,-0.98559 0.71428,-1.42858 0.37356,-0.56033 1.05502,-0.86823 1.42857,-1.42857 0.29532,-0.44298 0.41897,-0.98559 0.71429,-1.42857 0.18678,-0.28016 0.47619,-0.47619 0.71428,-0.71428 0.47619,-0.47619 0.86824,-1.05502 1.42858,-1.42858 0.1981,-0.13207 0.54592,0.16836 0.71428,0 0.16836,-0.16835 -0.16836,-0.54592 0,-0.71428 0.16836,-0.16836 0.51618,0.13207 0.71429,0 0.56033,-0.37356 0.95238,-0.95238 1.42857,-1.42857 0.23809,-0.2381 0.41312,-0.5637 0.71428,-0.71429 0.21296,-0.10648 0.50133,0.10648 0.71429,0 0.30117,-0.15058 0.41312,-0.5637 0.71429,-0.71428 0.21295,-0.10648 0.47619,0 0.71428,0 1.03611,0 2.27148,0.45705 2.85714,-0.71429 0.10648,-0.21296 0,-0.47619 0,-0.71429 0,-0.95238 0,-1.90476 0,-2.85714 0,-3.09524 0,-6.19047 0,-9.28571 0,-7.38095 0,-14.76191 0,-22.14286 0,-4.52381 0,-9.04762 0,-13.57143 0,-1.66666 0,-3.33333 0,-5 0,-0.95238 -0.13468,-1.91433 0,-2.85714 0.10648,-0.74536 0.56663,-1.40456 0.71429,-2.14286 0.18678,-0.93388 0,-1.90476 0,-2.85714 0,-2.61905 0,-5.2381 0,-7.85714 0,-0.26232 0.0287,-2.8284 0,-2.85715 -0.17188,-0.17188 -2.68526,0.17188 -2.85714,0 -0.16836,-0.16836 0.16836,-0.54592 0,-0.71428 -0.16836,-0.16836 -0.54593,0.16836 -0.71429,0 -0.16836,-0.16836 0.16836,-0.54593 0,-0.71429 -0.16836,-0.16836 -0.47619,0 -0.71428,0 -0.47619,0 -1.00266,0.21296 -1.42858,0 -0.21295,-0.10648 0.16836,-0.54592 0,-0.71428 -0.16835,-0.16836 -0.50132,0.10648 -0.71428,0 -0.30117,-0.15059 -0.41312,-0.5637 -0.71429,-0.71429 -0.21296,-0.10648 -0.54592,0.16836 -0.71428,0 -0.16836,-0.16836 0.16836,-0.54593 0,-0.71429 -0.24933,-0.24932 -1.99461,0.2965 -2.14286,0 -0.21296,-0.42591 0,-0.95238 0,-1.42857 0,-0.23809 0.16836,-0.54592 0,-0.71428 -0.37646,-0.37646 -1.05211,-0.33783 -1.42857,-0.71429 -0.16836,-0.16836 0.10648,-0.50132 0,-0.71428 -0.15059,-0.30117 -0.5637,-0.41312 -0.71429,-0.71429 -0.10648,-0.21296 0.16836,-0.54593 0,-0.71429 -0.16836,-0.16835 -0.47619,0 -0.71428,0 -0.2381,-0.47619 -0.33783,-1.0521 -0.71429,-1.42857 -0.16836,-0.16836 -0.6078,0.21296 -0.71428,0 -0.21296,-0.42591 0.21295,-1.00265 0,-1.42857 -0.10648,-0.21296 -0.47619,0 -0.71429,0 -0.2381,-0.47619 -0.54593,-0.92349 -0.71429,-1.42857 -0.43981,-1.31944 1.08994,-0.33864 -0.71428,-2.14286 -0.16836,-0.16836 -0.54593,0.16836 -0.71429,0 -0.35714,-0.35714 0.35715,-1.78571 0,-2.14285 -0.95238,-0.95238 -0.71428,1.19047 -0.71428,-0.71429 0,-0.46152 -0.17025,-2.6869 0,-2.85714 0.33671,-0.33672 0.9666,-0.1155 1.42857,0 1.033,0.25825 1.84699,1.09185 2.85714,1.42857 0.42152,0.14051 3.17234,0 3.57143,0 0.59814,0 3.02824,0.1358 3.57143,0 0.5165,-0.12913 0.92349,-0.54593 1.42857,-0.71429 0.22588,-0.0753 0.4833,0.0577 0.71429,0 0.73044,-0.18261 1.40455,-0.56662 2.14285,-0.71428 0.46695,-0.0934 0.9666,0.11549 1.42857,0 3.44925,-0.86231 -0.0354,-0.33944 2.14286,-1.42857 0.25513,-0.12757 4.12038,0 4.28572,0 2.85714,0 5.71428,0 8.57142,0 3.33334,0 6.66667,0 10,0 1.19048,0 2.38096,0 3.57143,0 0.2381,0 0.47619,0 0.71429,0 0.23809,0 0.50133,0.10648 0.71428,0 3.26901,-1.63451 -3.03101,0.29605 2.14286,-1.42858 0.6119,-0.20396 2.22699,0.15754 2.85714,0 3.44925,-0.86231 -0.0354,-0.33944 2.14286,-1.42857 0.21296,-0.10648 0.47619,0 0.71429,0 0.71428,0 1.44244,0.14009 2.14285,0 0.52206,-0.10441 0.91207,-0.58516 1.42858,-0.71428 0.73992,-0.18498 2.03809,0 2.85714,0 1.90476,0 3.80952,0 5.71428,0 0.16974,0 2.69705,0.08 2.85715,0 0.60234,-0.30117 0.86824,-1.05502 1.42857,-1.42857 0.44298,-0.29532 1.00265,-0.39485 1.42857,-0.71429 0.53875,-0.40406 0.86824,-1.05502 1.42857,-1.42857 0.19811,-0.13207 0.50133,0.10648 0.71429,0 0.30117,-0.15059 0.43412,-0.52751 0.71428,-0.71429 0.44298,-0.29532 1.13325,-0.2713 1.42857,-0.71428 0.26415,-0.39622 -0.26414,-1.03236 0,-1.42857 0.29533,-0.44298 0.98559,-0.41897 1.42858,-0.71429 1.72443,-1.14962 -0.2381,-0.23809 0.71428,-2.14286 0.10648,-0.21296 0.47619,0 0.71429,0 0.23809,-0.47619 0.54592,-0.92349 0.71428,-1.42857 0.11818,-0.35454 0.0608,-2.08202 0,-2.14286 -0.16836,-0.16835 -0.50132,0.10648 -0.71428,0 -0.60234,-0.30116 -0.7897,-1.21561 -1.42857,-1.42857 -0.47619,0 -0.95238,0 -1.42858,0 0,-0.23809 0.21296,-0.6078 0,-0.71428 -0.42591,-0.21296 -0.97681,0.15058 -1.42857,0 -1.14403,-0.38135 -0.28454,-1.04723 -1.42857,-1.42857 -0.45175,-0.15059 -1.00265,0.21296 -1.42857,0 -0.21296,-0.10648 0.16836,-0.54593 0,-0.71429 -0.16836,-0.16836 -0.50133,0.10648 -0.71429,0 -0.60233,-0.30117 -0.82623,-1.1274 -1.42857,-1.42857 -0.21296,-0.10648 -0.50132,0.10648 -0.71428,0 -2.97269,-1.48634 0.76359,0.0493 -0.71429,-1.42857 -0.16836,-0.16836 -0.54593,0.16836 -0.71428,0 -0.16836,-0.16836 0.16835,-0.54593 0,-0.71429 -0.33672,-0.33672 -1.09186,0.33672 -1.42858,0 -0.16835,-0.16836 0.21296,-0.6078 0,-0.71428 -0.42591,-0.21296 -0.95238,0 -1.42857,0 -0.23809,0 -0.54592,0.16836 -0.71428,0 -0.16836,-0.16836 0.16836,-0.54593 0,-0.71429 -0.23799,-0.23799 -1.19058,0.23799 -1.42857,0 -0.16836,-0.16836 0.16835,-0.54593 0,-0.71429 -0.0178,-0.0178 -3.30309,0 -3.57143,0 -1.19048,0 -2.38095,0 -3.57143,0 -0.2381,0 -0.47619,0 -0.71429,0 -0.23809,0 -0.50132,-0.10647 -0.71428,0 -0.30117,0.15059 -0.41312,0.56371 -0.71429,0.71429 -0.46402,0.23201 -3.11834,-0.22654 -3.57143,0 -0.30117,0.15059 -0.39484,0.60781 -0.71428,0.71429 -0.45176,0.15058 -0.95238,0 -1.42857,0 -0.47619,0 -0.95238,0 -1.42858,0 -1.90476,0 -3.80952,0 -5.71428,0 -1.19048,0 -2.38095,0 -3.57143,0 -0.23809,0 -0.54593,0.16836 -0.71429,0 -1.47788,-1.47789 2.2584,0.0578 -0.71428,-1.42858 -0.42258,-0.21128 -3.65626,0.15737 -4.28572,0 -0.5165,-0.12912 -0.91207,-0.58516 -1.42857,-0.71428 -0.46197,-0.11549 -0.95238,0 -1.42857,0 -1.03299,0 -4.24572,0.15085 -5,0 -0.52206,-0.10441 -0.91207,-0.58516 -1.42857,-0.71429 -0.64753,-0.16188 -2.74166,0 -3.57143,0 -2.61905,0 -5.23809,0 -7.85714,0 -5.2381,0 -10.47619,0 -15.71429,0 -2.38095,0 -4.7619,0 -7.14285,0 -0.47619,0 -0.95239,0 -1.42858,0 -0.23809,0 -0.50132,0.10648 -0.71428,0 -0.30117,-0.15058 -0.39485,-0.6078 -0.71429,-0.71428 -0.45175,-0.15059 -0.95238,0 -1.42857,0 -1.19047,0 -2.38095,0 -3.57143,0 -0.71428,0 -1.46522,0.22587 -2.14285,0 -0.31944,-0.10648 -0.41312,-0.5637 -0.71429,-0.71429 -0.21738,-0.10869 -1.82117,0 -2.14286,0 -1.90476,0 -3.80952,0 -5.71428,0 -4.52381,0 -9.04762,0 -13.57143,0 -1.42857,0 -2.85714,0 -4.28572,0 -0.76807,0 -2.0526,0.16091 -2.85714,0 -0.96263,-0.19252 -1.90476,-0.47619 -2.85714,-0.71428 z"
       id="path3770"
       inkscape:connector-curvature="0" />
  </g>
</svg>
