<?xml version="1.0" encoding="UTF-8" standalone="no"?>
<!-- Created with Inkscape (http://www.inkscape.org/) -->

<svg
   xmlns:dc="http://purl.org/dc/elements/1.1/"
   xmlns:cc="http://creativecommons.org/ns#"
   xmlns:rdf="http://www.w3.org/1999/02/22-rdf-syntax-ns#"
   xmlns:svg="http://www.w3.org/2000/svg"
   xmlns="http://www.w3.org/2000/svg"
   xmlns:sodipodi="http://sodipodi.sourceforge.net/DTD/sodipodi-0.dtd"
   xmlns:inkscape="http://www.inkscape.org/namespaces/inkscape"
   width="744.09448819"
   height="1052.3622047"
   id="svg2"
   version="1.1"
   inkscape:version="0.48.5 r10040"
   sodipodi:docname="Nuovo documento 1">
  <defs
     id="defs4" />
  <sodipodi:namedview
     id="base"
     pagecolor="#ffffff"
     bordercolor="#666666"
     borderopacity="1.0"
     inkscape:pageopacity="0.0"
     inkscape:pageshadow="2"
     inkscape:zoom="1.4"
     inkscape:cx="375"
     inkscape:cy="520"
     inkscape:document-units="px"
     inkscape:current-layer="layer1"
     showgrid="false"
     inkscape:window-width="1280"
     inkscape:window-height="962"
     inkscape:window-x="-8"
     inkscape:window-y="-8"
     inkscape:window-maximized="1" />
  <metadata
     id="metadata7">
    <rdf:RDF>
      <cc:Work
         rdf:about="">
        <dc:format>image/svg+xml</dc:format>
        <dc:type
           rdf:resource="http://purl.org/dc/dcmitype/StillImage" />
        <dc:title></dc:title>
      </cc:Work>
    </rdf:RDF>
  </metadata>
  <g
     inkscape:label="Livello 1"
     inkscape:groupmode="layer"
     id="layer1">
    <path
       style="fill:#000000;stroke:#000000;stroke-width:1px;stroke-linecap:butt;stroke-linejoin:miter;stroke-opacity:1;fill-opacity:0.58371043"
       d="m 239.28572,397.36218 42.14285,73.57143 0,12.14286 -12.14285,0.71428 0.71428,10 5.71429,-1.42857 -2.14286,33.57143 -5,0 2.14286,10 10,0 0.71428,15 -42.14285,70.71429 11.42857,7.85714 -41.42857,0.71429 -7.85715,7.85714 9.28572,3.57143 L 330,633.07647 l -2.85714,-7.14286 -25.71429,0 -15.71428,-7.85714 97.14286,-46.42857 -10,-45 13.57142,-7.85715 121.42858,-5.71428 2.85714,8.57143 43.57143,26.42857 12.14285,-33.57143 -0.71428,-16.42857 -13.57143,-27.85714 -43.57143,28.57142 -1.42857,6.42858 -118.57143,-5.71429 -15,-10.71429 10,-45 -95,-44.28571 13.57143,-8.57143 27.85714,0 -1.42857,-6.42857 -15,-4.28571 -82.14286,-4.28572 -26.42857,2.14286 2.14286,10 45.71429,0.71428 z"
       id="path2996"
       inkscape:connector-curvature="0" />
  </g>
</svg>
