<?xml version="1.0" encoding="UTF-8" standalone="no"?>
<!-- Created with Inkscape (http://www.inkscape.org/) -->

<svg
   xmlns:dc="http://purl.org/dc/elements/1.1/"
   xmlns:cc="http://creativecommons.org/ns#"
   xmlns:rdf="http://www.w3.org/1999/02/22-rdf-syntax-ns#"
   xmlns:svg="http://www.w3.org/2000/svg"
   xmlns="http://www.w3.org/2000/svg"
   xmlns:sodipodi="http://sodipodi.sourceforge.net/DTD/sodipodi-0.dtd"
   xmlns:inkscape="http://www.inkscape.org/namespaces/inkscape"
   width="744.09448819"
   height="1052.3622047"
   id="svg2"
   version="1.1"
   inkscape:version="0.48.5 r10040"
   sodipodi:docname="starbase.svg">
  <defs
     id="defs4" />
  <sodipodi:namedview
     id="base"
     pagecolor="#ffffff"
     bordercolor="#666666"
     borderopacity="1.0"
     inkscape:pageopacity="0.0"
     inkscape:pageshadow="2"
     inkscape:zoom="0.98994949"
     inkscape:cx="375"
     inkscape:cy="520"
     inkscape:document-units="px"
     inkscape:current-layer="layer1"
     showgrid="false"
     inkscape:window-width="1280"
     inkscape:window-height="962"
     inkscape:window-x="-8"
     inkscape:window-y="-8"
     inkscape:window-maximized="1" />
  <metadata
     id="metadata7">
    <rdf:RDF>
      <cc:Work
         rdf:about="">
        <dc:format>image/svg+xml</dc:format>
        <dc:type
           rdf:resource="http://purl.org/dc/dcmitype/StillImage" />
        <dc:title />
      </cc:Work>
    </rdf:RDF>
  </metadata>
  <g
     inkscape:label="Livello 1"
     inkscape:groupmode="layer"
     id="layer1">
    <path
       sodipodi:type="arc"
       style="fill:#cccccc;fill-opacity:1;stroke:none"
       id="path2985"
       sodipodi:cx="366.68536"
       sodipodi:cy="491.72751"
       sodipodi:rx="121.21831"
       sodipodi:ry="124.24876"
       d="m 487.90367,491.72751 a 121.21831,124.24876 0 1 1 -242.43661,0 121.21831,124.24876 0 1 1 242.43661,0 z" />
    <path
       sodipodi:type="arc"
       style="fill:#cccccc;fill-opacity:1;stroke:none"
       id="path2987"
       sodipodi:cx="184.85791"
       sodipodi:cy="444.75543"
       sodipodi:rx="21.213203"
       sodipodi:ry="22.728432"
       d="m 206.07111,444.75543 a 21.213203,22.728432 0 1 1 -42.4264,0 21.213203,22.728432 0 1 1 42.4264,0 z"
       transform="translate(61.619305,54.548237)" />
    <path
       sodipodi:type="arc"
       style="fill:#cccccc;fill-opacity:1;stroke:none"
       id="path2987-1"
       sodipodi:cx="184.85791"
       sodipodi:cy="444.75543"
       sodipodi:rx="21.213203"
       sodipodi:ry="22.728432"
       d="m 206.07111,444.75543 a 21.213203,22.728432 0 1 1 -42.4264,0 21.213203,22.728432 0 1 1 42.4264,0 z"
       transform="translate(184.85792,168.1904)" />
    <path
       sodipodi:type="arc"
       style="fill:#cccccc;fill-opacity:1;stroke:none"
       id="path2987-7"
       sodipodi:cx="184.85791"
       sodipodi:cy="444.75543"
       sodipodi:rx="21.213203"
       sodipodi:ry="22.728432"
       d="m 206.07111,444.75543 a 21.213203,22.728432 0 1 1 -42.4264,0 21.213203,22.728432 0 1 1 42.4264,0 z"
       transform="translate(302.03562,52.02285)" />
    <path
       sodipodi:type="arc"
       style="fill:#cccccc;fill-opacity:1;stroke:none"
       id="path2987-4"
       sodipodi:cx="184.85791"
       sodipodi:cy="444.75543"
       sodipodi:rx="21.213203"
       sodipodi:ry="22.728432"
       d="m 206.07111,444.75543 a 21.213203,22.728432 0 1 1 -42.4264,0 21.213203,22.728432 0 1 1 42.4264,0 z"
       transform="translate(178.79701,-71.21576)" />
    <path
       sodipodi:type="arc"
       style="fill:#cccccc;fill-opacity:1;stroke:none"
       id="path2987-0"
       sodipodi:cx="184.85791"
       sodipodi:cy="444.75543"
       sodipodi:rx="21.213203"
       sodipodi:ry="22.728432"
       d="m 206.07111,444.75543 a 21.213203,22.728432 0 1 1 -42.4264,0 21.213203,22.728432 0 1 1 42.4264,0 z"
       transform="translate(90.913735,-35.860421)" />
    <path
       sodipodi:type="arc"
       style="fill:#cccccc;fill-opacity:1;stroke:none"
       id="path2987-9"
       sodipodi:cx="184.85791"
       sodipodi:cy="444.75543"
       sodipodi:rx="21.213203"
       sodipodi:ry="22.728432"
       d="m 206.07111,444.75543 a 21.213203,22.728432 0 1 1 -42.4264,0 21.213203,22.728432 0 1 1 42.4264,0 z"
       transform="translate(269.71073,-33.840115)" />
    <path
       sodipodi:type="arc"
       style="fill:#cccccc;fill-opacity:1;stroke:none"
       id="path2987-48"
       sodipodi:cx="184.85791"
       sodipodi:cy="444.75543"
       sodipodi:rx="21.213203"
       sodipodi:ry="22.728432"
       d="m 206.07111,444.75543 a 21.213203,22.728432 0 1 1 -42.4264,0 21.213203,22.728432 0 1 1 42.4264,0 z"
       transform="translate(265.67012,135.86551)" />
    <path
       sodipodi:type="arc"
       style="fill:#cccccc;fill-opacity:1;stroke:none"
       id="path2987-8"
       sodipodi:cx="184.85791"
       sodipodi:cy="444.75543"
       sodipodi:rx="21.213203"
       sodipodi:ry="22.728432"
       d="m 206.07111,444.75543 a 21.213203,22.728432 0 1 1 -42.4264,0 21.213203,22.728432 0 1 1 42.4264,0 z"
       transform="translate(94.954345,132.83506)" />
    <path
       sodipodi:type="arc"
       style="fill:#cccccc;fill-opacity:1;stroke:none"
       id="path3049"
       sodipodi:cx="385.87827"
       sodipodi:cy="493.24274"
       sodipodi:rx="92.934036"
       sodipodi:ry="71.215752"
       d="m 478.8123,493.24274 a 92.934036,71.215752 0 1 1 -185.86807,0 92.934036,71.215752 0 1 1 185.86807,0 z" />
    <path
       sodipodi:type="arc"
       style="fill:#00ffff;fill-opacity:1;stroke:none"
       id="path3051"
       sodipodi:cx="185.36299"
       sodipodi:cy="654.36206"
       sodipodi:rx="90.408653"
       sodipodi:ry="92.934036"
       d="m 275.77164,654.36206 a 90.408653,92.934036 0 1 1 -180.817302,0 90.408653,92.934036 0 1 1 180.817302,0 z"
       transform="translate(179.80715,-160.61425)" />
    <path
       sodipodi:type="arc"
       style="fill:#333333;fill-opacity:1;stroke:none"
       id="path3053"
       sodipodi:cx="367.69553"
       sodipodi:cy="503.84937"
       sodipodi:rx="53.538086"
       sodipodi:ry="73.741135"
       d="m 421.23361,503.84937 a 53.538086,73.741135 0 1 1 -107.07617,0 53.538086,73.741135 0 1 1 107.07617,0 z"
       transform="matrix(1.5471697,0,0,1.1438356,-204.22234,-81.057782)" />
  </g>
</svg>
